<svg viewBox="0 0 95 95" fill="none" xmlns="http://www.w3.org/2000/svg">
<g filter="url(#filter0_d_30_13)">
<g filter="url(#filter1_d_30_13)">
<path fill-rule="evenodd" clip-rule="evenodd" d="M60.5938 12.3272C61.916 10.3732 64.5234 9.77328 66.5666 10.9529L69.0503 12.3869C71.0935 13.5665 71.8776 16.1245 70.8465 18.2465C68.8422 22.3716 72.4054 27.0152 76.9087 26.1468C79.2255 25.7002 81.4935 27.1197 82.1034 29.3985L82.8463 32.1687C83.457 34.4475 82.2026 36.8108 79.9731 37.5823C75.6386 39.0819 74.8745 44.8849 78.6731 47.4551C80.6271 48.7774 81.2267 51.3848 80.0471 53.4279L78.6133 55.9116C77.4336 57.9547 74.8752 58.7389 72.7535 57.7078C68.6285 55.7036 63.9849 59.2667 64.8532 63.77C65.3 66.0865 63.8805 68.3544 61.6016 68.965L58.8314 69.7074C56.5526 70.318 54.1893 69.0636 53.4179 66.8341C51.9183 62.4999 46.1152 61.7359 43.545 65.5343C42.2227 67.4882 39.6154 68.0881 37.5722 66.9085L35.0885 65.4745C33.0454 64.2949 32.2612 61.7369 33.2922 59.6149C35.2965 55.4898 31.7334 50.8463 27.2301 51.7146C24.9136 52.1613 22.6456 50.7417 22.035 48.463L21.2928 45.6927C20.6821 43.4139 21.9364 41.0506 24.166 40.2791C28.5002 38.7795 29.2641 32.9765 25.4658 30.4063C23.5119 29.084 22.9119 26.4766 24.0916 24.4336L25.5256 21.9499C26.7052 19.9067 29.2632 19.1225 31.3852 20.1536C35.5103 22.1579 40.1539 18.5948 39.2855 14.0914C38.8388 11.7749 40.2583 9.50697 42.5372 8.89638L45.3074 8.15412C47.5863 7.54345 49.9495 8.79777 50.7209 11.0274C52.2205 15.3615 58.0235 16.1255 60.5938 12.3272ZM49.1082 46.308C52.8721 48.4811 57.6851 47.1915 59.8582 43.4276C62.0313 39.6637 60.7417 34.8508 56.9778 32.6776C53.2138 30.5045 48.4009 31.7942 46.2278 35.5581C44.0547 39.322 45.3443 44.1349 49.1082 46.308Z" fill="url(#paint0_linear_30_13)"/>
</g>
<g filter="url(#filter2_dd_30_13)">
<path fill-rule="evenodd" clip-rule="evenodd" d="M33.5587 24.2205C33.7268 21.8672 35.6849 20.0439 38.0441 20.0439H40.9121C43.2713 20.0439 45.2294 21.8672 45.3974 24.2205C45.7243 28.795 51.1318 31.0349 54.5975 28.0312C56.3804 26.4861 59.0542 26.5815 60.7225 28.2497L62.7504 30.2776C64.4186 31.9459 64.514 34.6197 62.9689 36.4025C59.9652 39.8683 62.2051 45.2758 66.7796 45.6026C69.1329 45.7707 70.9561 47.7288 70.9561 50.088V52.956C70.9561 55.3152 69.1329 57.2733 66.7796 57.4414C62.2051 57.7682 59.9653 63.1757 62.9689 66.6415C64.514 68.4243 64.4186 71.0981 62.7504 72.7664L60.7225 74.7945C59.0543 76.4629 56.3805 76.5581 54.5976 75.0125C51.1318 72.0091 45.7243 74.2492 45.3974 78.8237C45.2294 81.1767 43.2713 83.0001 40.9121 83.0001H38.0441C35.6849 83.0001 33.7268 81.1767 33.5587 78.8237C33.2319 74.2492 27.8243 72.0091 24.3586 75.0125C22.5758 76.5581 19.9019 76.4629 18.2337 74.7945L16.2058 72.7664C14.5375 71.0981 14.4421 68.4243 15.9872 66.6415C18.991 63.1757 16.7511 57.7682 12.1765 57.4414C9.82321 57.2733 8 55.3152 8 52.956V50.088C8 47.7288 9.82321 45.7707 12.1765 45.6026C16.7511 45.2758 18.991 39.8683 15.9873 36.4025C14.4421 34.6197 14.5375 31.9459 16.2058 30.2776L18.2337 28.2497C19.9019 26.5815 22.5758 26.4861 24.3586 28.0312C27.8243 31.0349 33.2319 28.795 33.5587 24.2205ZM40.6023 59.3915C44.9485 59.3915 48.4718 55.8683 48.4718 51.522C48.4718 47.1758 44.9485 43.6525 40.6023 43.6525C36.2561 43.6525 32.7328 47.1758 32.7328 51.522C32.7328 55.8683 36.2561 59.3915 40.6023 59.3915Z" fill="white" fill-opacity="0.4"/>
</g>
<g filter="url(#filter3_d_30_13)">
<path fill-rule="evenodd" clip-rule="evenodd" d="M40.6023 71.7579C51.7783 71.7579 60.8382 62.698 60.8382 51.522C60.8382 40.346 51.7783 31.2861 40.6023 31.2861C29.4263 31.2861 20.3665 40.346 20.3665 51.522C20.3665 62.698 29.4263 71.7579 40.6023 71.7579ZM40.6023 59.3915C44.9485 59.3915 48.4718 55.8682 48.4718 51.522C48.4718 47.1758 44.9485 43.6525 40.6023 43.6525C36.2561 43.6525 32.7328 47.1758 32.7328 51.522C32.7328 55.8682 36.2561 59.3915 40.6023 59.3915Z" fill="url(#paint1_linear_30_13)"/>
</g>
<g filter="url(#filter4_dd_30_13)">
<path fill-rule="evenodd" clip-rule="evenodd" d="M40.6022 65.0124C48.0528 65.0124 54.0928 58.9725 54.0928 51.5218C54.0928 44.0712 48.0528 38.0312 40.6022 38.0312C33.1516 38.0312 27.1116 44.0712 27.1116 51.5218C27.1116 58.9725 33.1516 65.0124 40.6022 65.0124ZM40.6022 59.3913C44.9484 59.3913 48.4717 55.8681 48.4717 51.5218C48.4717 47.1756 44.9484 43.6523 40.6022 43.6523C36.256 43.6523 32.7327 47.1756 32.7327 51.5218C32.7327 55.8681 36.256 59.3913 40.6022 59.3913Z" fill="white" fill-opacity="0.6"/>
</g>
</g>
<defs>
<filter id="filter0_d_30_13" x="4" y="4" width="91.0005" height="91" filterUnits="userSpaceOnUse" color-interpolation-filters="sRGB">
<feFlood flood-opacity="0" result="BackgroundImageFix"/>
<feColorMatrix in="SourceAlpha" type="matrix" values="0 0 0 0 0 0 0 0 0 0 0 0 0 0 0 0 0 0 127 0" result="hardAlpha"/>
<feOffset dx="4" dy="4"/>
<feGaussianBlur stdDeviation="4"/>
<feColorMatrix type="matrix" values="0 0 0 0 0.556863 0 0 0 0 0.556863 0 0 0 0 0.556863 0 0 0 0.4 0"/>
<feBlend mode="normal" in2="BackgroundImageFix" result="effect1_dropShadow_30_13"/>
<feBlend mode="normal" in="SourceGraphic" in2="effect1_dropShadow_30_13" result="shape"/>
</filter>
<filter id="filter1_d_30_13" x="13.1387" y="0" width="77.8618" height="77.8616" filterUnits="userSpaceOnUse" color-interpolation-filters="sRGB">
<feFlood flood-opacity="0" result="BackgroundImageFix"/>
<feColorMatrix in="SourceAlpha" type="matrix" values="0 0 0 0 0 0 0 0 0 0 0 0 0 0 0 0 0 0 127 0" result="hardAlpha"/>
<feOffset/>
<feGaussianBlur stdDeviation="4"/>
<feComposite in2="hardAlpha" operator="out"/>
<feColorMatrix type="matrix" values="0 0 0 0 1 0 0 0 0 1 0 0 0 0 1 0 0 0 0.8 0"/>
<feBlend mode="normal" in2="BackgroundImageFix" result="effect1_dropShadow_30_13"/>
<feBlend mode="normal" in="SourceGraphic" in2="effect1_dropShadow_30_13" result="shape"/>
</filter>
<filter id="filter2_dd_30_13" x="0" y="16.0439" width="78.9561" height="78.9561" filterUnits="userSpaceOnUse" color-interpolation-filters="sRGB">
<feFlood flood-opacity="0" result="BackgroundImageFix"/>
<feColorMatrix in="SourceAlpha" type="matrix" values="0 0 0 0 0 0 0 0 0 0 0 0 0 0 0 0 0 0 127 0" result="hardAlpha"/>
<feOffset/>
<feGaussianBlur stdDeviation="2"/>
<feComposite in2="hardAlpha" operator="out"/>
<feColorMatrix type="matrix" values="0 0 0 0 1 0 0 0 0 1 0 0 0 0 1 0 0 0 1 0"/>
<feBlend mode="normal" in2="BackgroundImageFix" result="effect1_dropShadow_30_13"/>
<feColorMatrix in="SourceAlpha" type="matrix" values="0 0 0 0 0 0 0 0 0 0 0 0 0 0 0 0 0 0 127 0" result="hardAlpha"/>
<feOffset dy="4"/>
<feGaussianBlur stdDeviation="4"/>
<feComposite in2="hardAlpha" operator="out"/>
<feColorMatrix type="matrix" values="0 0 0 0 1 0 0 0 0 1 0 0 0 0 1 0 0 0 1 0"/>
<feBlend mode="normal" in2="effect1_dropShadow_30_13" result="effect2_dropShadow_30_13"/>
<feBlend mode="normal" in="SourceGraphic" in2="effect2_dropShadow_30_13" result="shape"/>
</filter>
<filter id="filter3_d_30_13" x="12.3665" y="23.2861" width="56.4717" height="56.4717" filterUnits="userSpaceOnUse" color-interpolation-filters="sRGB">
<feFlood flood-opacity="0" result="BackgroundImageFix"/>
<feColorMatrix in="SourceAlpha" type="matrix" values="0 0 0 0 0 0 0 0 0 0 0 0 0 0 0 0 0 0 127 0" result="hardAlpha"/>
<feOffset/>
<feGaussianBlur stdDeviation="4"/>
<feComposite in2="hardAlpha" operator="out"/>
<feColorMatrix type="matrix" values="0 0 0 0 1 0 0 0 0 1 0 0 0 0 1 0 0 0 0.8 0"/>
<feBlend mode="normal" in2="BackgroundImageFix" result="effect1_dropShadow_30_13"/>
<feBlend mode="normal" in="SourceGraphic" in2="effect1_dropShadow_30_13" result="shape"/>
</filter>
<filter id="filter4_dd_30_13" x="19.1116" y="34.0312" width="42.9812" height="42.9812" filterUnits="userSpaceOnUse" color-interpolation-filters="sRGB">
<feFlood flood-opacity="0" result="BackgroundImageFix"/>
<feColorMatrix in="SourceAlpha" type="matrix" values="0 0 0 0 0 0 0 0 0 0 0 0 0 0 0 0 0 0 127 0" result="hardAlpha"/>
<feOffset/>
<feGaussianBlur stdDeviation="2"/>
<feComposite in2="hardAlpha" operator="out"/>
<feColorMatrix type="matrix" values="0 0 0 0 1 0 0 0 0 1 0 0 0 0 1 0 0 0 1 0"/>
<feBlend mode="normal" in2="BackgroundImageFix" result="effect1_dropShadow_30_13"/>
<feColorMatrix in="SourceAlpha" type="matrix" values="0 0 0 0 0 0 0 0 0 0 0 0 0 0 0 0 0 0 127 0" result="hardAlpha"/>
<feOffset dy="4"/>
<feGaussianBlur stdDeviation="4"/>
<feComposite in2="hardAlpha" operator="out"/>
<feColorMatrix type="matrix" values="0 0 0 0 1 0 0 0 0 1 0 0 0 0 1 0 0 0 1 0"/>
<feBlend mode="normal" in2="effect1_dropShadow_30_13" result="effect2_dropShadow_30_13"/>
<feBlend mode="normal" in="SourceGraphic" in2="effect2_dropShadow_30_13" result="shape"/>
</filter>
<linearGradient id="paint0_linear_30_13" x1="52.0694" y1="8.00004" x2="52.0694" y2="69.8615" gradientUnits="userSpaceOnUse">
<stop stop-color="#959595"/>
<stop offset="1" stop-color="#605F60"/>
</linearGradient>
<linearGradient id="paint1_linear_30_13" x1="40.6023" y1="31.2861" x2="40.6023" y2="71.7579" gradientUnits="userSpaceOnUse">
<stop stop-color="#959595"/>
<stop offset="1" stop-color="#605F60"/>
</linearGradient>
</defs>
</svg>